# xmcd
#
# Track frame offsets: 
#        150
#        34265
#        62940
#        89660
#        110865
#        141217
#        175135
#
# Disc length: 2988 seconds
#
# Revision: 1
# Processed by: cddbd v1.4PL0 Copyright (c) Steve Scherf et al.
# Submitted via: ExactAudioCopy v0.90b4
#
DISCID=690baa07
DTITLE=Medwyn Goodall - Tintagel, Castle of Arthur
DYEAR=1900
DGENRE=New Age
TTITLE0=Merlin's Cave
TTITLE1=The Castle on the Cliff
TTITLE2=The Round Table
TTITLE3=The Joust
TTITLE4=Betrothal
TTITLE5=My Lady's Garden
TTITLE6=The Age of Chivalry
EXTD=ID3G: 64
EXTT0=
EXTT1=
EXTT2=
EXTT3=
EXTT4=
EXTT5=
EXTT6=
PLAYORDER=
